<svg width="126" height="126" viewBox="0 0 126 126" xmlns="http://www.w3.org/2000/svg">
  <ellipse cx="63.5" cy="63.03" rx="60" ry="60" fill="#064E3B"/>
  <path d="M 61.51 24.64 C 56.11 24.71 50.82 26.71 46.74 30.67 L 34.61 42.76 C 29.81 40.25 23.63 40.94 19.51 45.04 C 14.47 50.06 14.47 58.05 19.51 63.07 C 22.02 65.58 25.23 66.72 28.43 66.72 C 31.64 66.72 35.07 65.58 37.36 63.07 C 41.71 58.73 42.39 52.57 39.88 47.78 L 52.01 35.69 C 57.73 29.98 67.34 30.67 73.75 36.83 C 76.73 39.8 78.56 43.9 78.79 48.01 C 79.02 52.12 77.64 55.77 74.9 58.51 L 60.93 72.42 L 65.97 77.45 L 79.93 63.53 C 84.05 59.42 86.11 53.72 85.88 47.78 C 85.66 41.85 83.14 36.15 78.79 31.81 C 73.92 26.96 67.64 24.56 61.51 24.64 Z M 60.02 47.33 L 46.06 61.24 C 37.59 69.69 38.05 84.06 47.2 93.19 C 52.01 97.98 58.19 100.49 64.37 100.49 C 69.86 100.49 75.13 98.44 79.25 94.56 L 91.38 82.46 C 93.21 83.38 95.27 84.06 97.56 84.06 C 100.76 84.06 104.2 82.92 106.48 80.41 C 111.52 74.93 111.52 66.72 106.48 61.93 C 101.45 56.91 93.44 56.91 88.4 61.93 C 84.28 66.04 83.6 72.2 86.11 76.99 L 73.98 89.08 C 68.26 94.79 58.65 94.1 52.24 87.94 C 45.83 81.78 45.37 71.97 51.09 66.26 L 65.06 52.35 Z M 28.66 48.47 C 30.03 48.47 31.41 48.92 32.55 50.06 C 34.61 52.12 34.61 55.54 32.55 57.82 C 30.49 59.88 26.83 59.88 24.77 57.82 C 22.71 55.77 22.71 52.12 24.77 50.06 C 25.91 48.92 27.29 48.47 28.66 48.47 Z M 97.56 65.35 C 98.93 65.35 100.3 65.81 101.45 66.95 C 103.51 69 103.51 72.65 101.45 74.71 C 99.39 76.76 95.73 76.76 93.67 74.71 C 91.61 72.65 91.61 69 93.67 66.95 C 94.81 65.81 96.18 65.35 97.56 65.35 Z" fill="#ffffff" transform="rotate(90, 63, 62.53)"/>
</svg>